<svg id="Capa_1" enable-background="new 0 0 512 512" height="512" viewBox="0 0 512 512" width="512" xmlns="http://www.w3.org/2000/svg"><g id="XMLID_1165_"><g id="XMLID_28_"><path id="XMLID_57_" d="m497.415 212.068c-2.006-10.119-8.281-18.88-17.215-24.039l-19.808-11.436c-2.297-1.326-5.025-1.685-7.588-.999-2.562.687-4.746 2.362-6.072 4.659l-1.273 2.205-45.112-26.046c-.005-.003-3.474-2.006-3.474-2.006 6.24-23.848 6.427-48.907.442-72.976-2.997-12.055-7.486-23.587-13.327-34.373l28.797-7.716c5.334-1.429 8.5-6.913 7.071-12.248-1.43-5.334-6.91-8.5-12.248-7.071l-34.912 9.355c-5.19-6.966-11.016-13.497-17.437-19.507-7.131-6.675-16.423-10.169-26.197-9.851-9.762.322-18.814 4.427-25.489 11.558s-10.174 16.435-9.852 26.197c.14 4.251.999 8.367 2.512 12.211-4.491 1.929-7.009 6.902-5.707 11.761 1.197 4.468 5.237 7.415 9.653 7.415.856 0 1.728-.111 2.594-.343l6.327-1.695c12.126 13.145 18.945 30.112 19.433 47.826l-77.653-44.831c-4.781-2.761-10.898-1.123-13.66 3.66s-1.123 10.899 3.66 13.66l11.456 6.614c-1.855 1.787-3.475 3.842-4.798 6.135l-35.423 61.355c-1.338 2.318-2.294 4.752-2.903 7.229l-15.78-9.111c-7.947-4.587-17.205-5.806-26.068-3.432-8.864 2.375-16.272 8.06-20.86 16.006-8.132 14.085-5.115 31.59 6.282 42.255l-12.76 22.102c-14.113-5.578-30.605-.126-38.415 13.402l-71.834 124.416c-7.81 13.527-4.287 30.537 7.6 39.97l-17.141 29.689c-.719 1.245-1.161 2.629-1.295 4.061l-4.996 52.932c-.368 3.894 1.568 7.644 4.956 9.6 1.552.896 3.278 1.34 4.999 1.34 2.036 0 4.065-.621 5.792-1.848l43.343-30.792c1.172-.833 2.15-1.908 2.869-3.152l17.145-29.696c3.697 1.461 7.554 2.176 11.379 2.176 10.775 0 21.27-5.588 27.033-15.571l71.832-124.416c7.81-13.528 4.287-30.537-7.601-39.97l12.31-21.321 10.513 6.07c9.223 5.325 19.301 7.854 29.255 7.854 17.118 0 33.861-7.486 45.202-21.108l93.446 53.951c.026 2.886.413 5.788 1.18 8.649 2.377 8.874 8.068 16.29 16.024 20.883 5.287 3.052 11.224 4.608 17.197 4.608 3.743 0 7.501-.611 11.121-1.848 9.397-3.211 16.945-10.325 20.708-19.515 9.671-23.623 22.465-45.86 38.028-66.095 6.289-8.18 8.745-18.673 6.739-28.792zm-105.092 62.423-22.07-12.742c1.855-1.787 3.475-3.842 4.798-6.135l35.424-61.355c1.338-2.318 2.294-4.751 2.903-7.228l22.079 12.747zm-28.841-115.081c1.306 0 2.628.332 3.839 1.03l23.019 13.29c3.677 2.128 4.941 6.85 2.816 10.53l-35.424 61.355c-1.03 1.784-2.692 3.06-4.682 3.593s-4.068.259-5.852-.77l-23.009-13.285c-1.784-1.03-3.06-2.692-3.593-4.682-.533-1.989-.259-4.067.771-5.852l35.423-61.355c1.427-2.471 4.024-3.854 6.692-3.854zm-45.31-134.164c3.024-3.23 7.125-5.09 11.548-5.236 4.414-.154 8.638 1.439 11.869 4.463 32.571 30.488 46.517 76.275 37.229 119.511l-30.705-17.728c2.857-28.984-7.771-57.563-29.168-77.593-3.231-3.024-5.091-7.125-5.237-11.548s1.439-8.639 4.464-11.869zm-88.738 146.296 35.423-61.355c1.427-2.471 4.024-3.854 6.691-3.854 1.308 0 2.632.333 3.843 1.032l23.01 13.285c3.681 2.127 4.947 6.852 2.821 10.534l-35.424 61.355c-1.03 1.784-2.692 3.06-4.682 3.593-1.99.535-4.068.259-5.852-.771l-23.008-13.284c-1.784-1.03-3.06-2.693-3.593-4.683s-.259-4.068.771-5.852zm53.686 30.996 35.424-61.355c1.338-2.318 2.294-4.751 2.903-7.228l22.831 13.182c-1.841 1.766-3.47 3.811-4.808 6.129l-35.423 61.355c-1.324 2.293-2.294 4.722-2.914 7.223l-22.812-13.17c1.856-1.789 3.475-3.844 4.799-6.136zm-143.561 176.553-67.043-38.707 20.995-36.365 67.043 38.708zm-79.885 85.227-23.766 16.884 2.739-29.024 15.88-27.505 21.027 12.14zm54.467-41.202c-3.075 5.326-9.911 7.159-15.238 4.083l-47.722-27.552c-5.327-3.076-7.159-9.912-4.083-15.239l15.418-26.705 67.043 38.707zm71.831-124.415-15.418 26.705-67.043-38.708 15.418-26.705c2.064-3.575 5.821-5.575 9.679-5.575 1.891 0 3.807.481 5.559 1.492l47.722 27.552c5.326 3.076 7.158 9.912 4.083 15.239zm-7.431-40.266-21.027-12.14 12.14-21.027 21.027 12.14zm49.974-22.276-59.438-34.317c-6.854-3.958-9.211-12.753-5.254-19.607 1.917-3.32 5.012-5.695 8.716-6.688 3.705-.994 7.572-.483 10.892 1.434l91.825 53.016c-12.083 12.088-31.252 15.104-46.741 6.162zm246.307-7.495c-16.65 21.648-30.338 45.438-40.684 70.711-1.598 3.902-4.675 6.803-8.666 8.167s-8.199.954-11.851-1.155c-3.33-1.922-5.711-5.026-6.706-8.739-.995-3.714-.484-7.592 1.438-10.922l50.698-87.813 11.147 6.436c4 2.31 6.699 6.078 7.598 10.609.899 4.532-.157 9.044-2.974 12.706z"/></g></g></svg>